<?xml version="1.0" standalone="no"?>
<!DOCTYPE svg PUBLIC "-//W3C//DTD SVG 20010904//EN"
 "http://www.w3.org/TR/2001/REC-SVG-20010904/DTD/svg10.dtd">
<svg version="1.0" xmlns="http://www.w3.org/2000/svg"
 width="4167.000000pt" height="4167.000000pt" viewBox="0 0 4167.000000 4167.000000"
 preserveAspectRatio="xMidYMid meet">
<metadata>
Created by potrace 1.14, written by Peter Selinger 2001-2017
</metadata>
<g transform="translate(0.000000,4167.000000) scale(0.100000,-0.100000)"
fill="#000000" stroke="none">
<path d="M19987 39342 l-217 -368 -363 -23 c-199 -13 -393 -26 -431 -29 l-69
-7 284 -324 284 -325 -107 -418 c-99 -391 -105 -418 -85 -412 12 4 188 78 392
165 203 88 375 159 382 159 6 0 172 -101 368 -226 197 -124 359 -223 361 -221
2 2 -14 195 -35 428 -31 331 -37 426 -27 434 308 253 645 540 639 546 -4 4
-190 48 -413 99 -222 50 -407 93 -411 95 -3 3 -77 182 -163 400 -87 217 -161
395 -164 395 -4 0 -105 -166 -225 -368z m248 -507 c37 -97 75 -180 84 -184 9
-5 93 -25 186 -46 94 -21 175 -40 182 -44 7 -3 -53 -60 -142 -134 l-154 -128
5 -42 c10 -83 33 -352 30 -354 -1 -2 -77 44 -169 102 -92 58 -169 105 -172
105 -4 0 -86 -34 -182 -75 -97 -42 -178 -73 -181 -70 -3 2 17 90 43 194 l48
189 -131 148 c-72 82 -129 150 -127 152 2 2 92 10 200 17 108 7 198 15 199 17
2 1 47 78 101 170 54 92 102 165 105 163 4 -2 37 -83 75 -180z"/>
<path d="M24769 38443 c-172 -289 -320 -534 -329 -544 -13 -14 -91 -21 -610
-53 -327 -21 -610 -40 -628 -44 l-33 -7 371 -423 c203 -233 370 -426 370 -430
0 -4 -80 -24 -178 -45 l-177 -38 -255 25 c-2275 228 -4575 289 -6785 180
l-130 -7 -1 144 c-1 125 -5 156 -28 232 -121 402 -470 667 -880 667 -169 0
-317 -39 -463 -121 -108 -61 -271 -224 -332 -332 -85 -151 -121 -289 -121
-462 0 -91 17 -221 34 -265 6 -14 -30 -21 -251 -49 -1672 -213 -2935 -567
-3594 -1007 l-144 -96 -128 28 c-71 15 -134 33 -142 38 -7 6 -97 224 -201 484
-103 259 -191 472 -194 472 -5 0 -520 -855 -534 -886 -1 -1 -234 -17 -519 -35
-284 -18 -517 -36 -517 -40 0 -4 152 -182 339 -395 l339 -387 -129 -506 c-70
-278 -127 -506 -126 -507 1 -1 216 90 477 202 261 112 478 204 482 204 3 0
199 -122 435 -271 235 -149 434 -274 442 -277 10 -4 12 2 8 24 -3 16 -9 66
-13 112 l-6 83 98 -77 c376 -295 974 -596 1704 -858 102 -37 211 -76 243 -88
l58 -21 -233 -120 c-419 -215 -875 -467 -1280 -709 l-217 -129 -37 41 c-56 61
-208 186 -299 246 -178 115 -382 200 -595 245 -92 20 -134 23 -330 23 -196 0
-238 -3 -330 -23 -523 -112 -936 -426 -1174 -891 -240 -468 -249 -1011 -24
-1490 50 -108 168 -292 235 -369 l39 -44 -32 -86 c-56 -147 -77 -275 -71 -426
4 -91 12 -152 27 -205 155 -537 775 -860 1860 -969 598 -61 1417 -53 2264 20
198 17 241 18 251 7 93 -98 175 -202 171 -216 -10 -32 -356 -1398 -356 -1404
0 -3 293 120 651 273 359 154 653 278 655 276 2 -2 -21 -61 -51 -132 l-54
-130 -198 -80 c-1025 -417 -1853 -954 -2558 -1660 -803 -803 -1390 -1809
-1730 -2960 -244 -826 -360 -1855 -295 -2615 40 -463 139 -996 270 -1450 257
-890 660 -1671 1233 -2390 205 -257 336 -401 646 -710 373 -373 622 -593 1149
-1017 l242 -196 -2 -1455 -3 -1455 -80 -34 c-198 -84 -325 -142 -527 -240
l-217 -106 -53 24 c-43 19 -70 24 -143 24 -112 0 -127 -6 -520 -200 -740 -365
-1361 -765 -1951 -1257 -179 -150 -199 -181 -199 -313 0 -101 18 -153 75 -218
l32 -37 -193 -198 c-822 -838 -1519 -1822 -2025 -2857 -671 -1372 -1054 -2836
-1143 -4365 -17 -290 -24 -649 -16 -872 l7 -218 316 0 315 0 -6 241 c-28 1142
141 2318 494 3446 87 278 256 745 333 917 8 17 42 96 77 176 87 201 307 641
429 860 392 703 813 1293 1360 1905 178 199 744 763 773 770 26 7 214 -56 359
-120 682 -303 1346 -861 1755 -1475 206 -310 407 -709 538 -1068 169 -465 281
-947 329 -1417 29 -279 36 -468 36 -941 0 -607 -11 -881 -80 -2019 -17 -269
-39 -638 -50 -820 -11 -181 -22 -358 -26 -392 l-6 -63 321 0 c299 0 321 1 321
18 0 9 5 78 10 152 51 688 107 1767 135 2588 45 1290 -69 2203 -381 3065 -288
795 -680 1425 -1223 1967 -515 513 -1127 898 -1760 1105 l-85 28 30 24 c16 13
128 90 249 171 366 245 735 459 1133 659 l213 106 142 -95 c431 -290 845 -637
1283 -1073 353 -353 617 -649 1254 -1415 706 -847 1128 -1318 1626 -1815 1387
-1384 2689 -2168 3944 -2374 286 -47 393 -55 685 -55 361 0 620 31 1019 120
715 159 1317 431 1796 812 128 102 409 384 500 502 378 490 591 1069 650 1767
16 182 8 668 -14 853 -31 262 -90 575 -152 810 -201 757 -597 1463 -1124 2004
-243 249 -497 446 -758 586 l-102 55 0 173 0 174 28 -6 c15 -3 234 -44 487
-91 l460 -85 60 -42 c428 -297 748 -560 1025 -844 297 -305 500 -576 778
-1041 435 -726 712 -1393 956 -2295 443 -1639 616 -3695 481 -5733 -13 -197
-25 -326 -62 -712 l-6 -63 317 0 c246 0 316 3 316 13 0 6 9 95 20 197 23 220
54 620 72 925 17 297 18 1586 0 1905 -45 831 -106 1454 -203 2090 -306 1987
-958 3639 -1886 4778 -45 56 -81 102 -78 102 13 0 307 -152 470 -243 632 -352
1149 -737 1659 -1237 556 -545 944 -1057 1317 -1737 96 -174 251 -489 309
-628 18 -44 43 -102 56 -130 77 -173 215 -561 304 -858 385 -1275 557 -2654
587 -4714 l6 -463 315 0 315 0 -6 507 c-29 2259 -268 3927 -762 5304 -379
1057 -865 1902 -1552 2699 -155 180 -632 656 -810 808 -529 452 -1036 797
-1633 1110 -469 246 -1085 490 -1595 632 -82 23 -173 48 -200 55 -34 10 -87
41 -160 96 -136 100 -165 115 -251 129 -38 6 -310 56 -605 110 -295 55 -540
100 -544 100 -7 0 1 799 8 807 2 1 75 -4 163 -12 2183 -198 4369 62 6227 740
87 32 159 56 161 54 1 -2 65 -92 141 -199 538 -757 941 -1247 1425 -1731 415
-416 736 -685 1130 -944 1060 -698 2289 -984 3331 -774 574 115 1074 366 1473
740 101 94 250 261 282 316 41 69 100 224 131 339 26 102 28 122 28 309 0 157
-4 218 -19 285 -72 335 -255 697 -532 1054 l-77 99 -286 -6 c-364 -7 -543 -31
-814 -108 -433 -122 -760 -358 -911 -658 l-28 -53 -53 79 c-45 67 -57 97 -79
186 -45 182 -59 299 -60 487 0 128 5 199 17 264 51 255 150 452 306 606 93 92
192 159 297 201 86 35 234 68 304 69 25 1 63 4 85 8 l39 7 -154 104 c-232 155
-445 251 -700 316 -189 48 -282 59 -500 59 -214 0 -334 -14 -465 -55 -33 -10
-85 -19 -116 -19 -34 0 -110 -14 -185 -35 -397 -109 -822 -45 -1304 197 -107
54 -206 106 -219 116 l-23 19 129 91 130 91 184 41 c695 157 1405 379 1899
592 167 72 449 218 570 294 461 289 782 642 932 1024 225 576 117 1213 -274
1614 l-88 89 75 98 c175 228 282 445 336 679 26 113 36 331 20 440 -35 237
-154 468 -345 668 l-92 97 -13 100 c-82 651 -350 1403 -707 1981 l-62 101 51
79 c79 122 273 465 348 614 195 389 313 789 371 1260 17 140 17 679 0 820 -18
145 -57 366 -85 482 l-24 96 24 59 c41 100 120 343 147 453 108 448 74 847
-99 1155 -163 292 -469 527 -803 617 -59 16 -109 21 -217 22 -193 1 -284 -20
-466 -106 l-105 -50 -100 65 c-369 241 -777 415 -1193 508 l-103 23 -38 76
c-90 179 -246 387 -414 555 -187 186 -386 332 -651 477 -249 137 -468 220
-727 279 l-143 32 -75 67 c-635 562 -1333 925 -2053 1065 -295 58 -425 69
-792 70 -347 0 -425 -5 -670 -46 -529 -88 -1073 -318 -1492 -631 -60 -44 -113
-82 -120 -85 -7 -3 -63 24 -125 60 -62 35 -148 83 -191 107 -52 28 -79 49 -82
63 -6 30 -45 484 -45 523 l0 31 293 118 c160 65 414 169 562 232 l270 114 225
9 c1768 75 3262 250 4386 513 l142 33 17 -84 c56 -283 202 -549 420 -768 221
-222 472 -360 778 -426 139 -30 464 -33 602 -5 301 61 561 197 776 405 246
237 389 500 456 837 27 137 24 445 -5 581 -85 393 -305 732 -620 954 l-60 42
-7 87 c-26 317 -208 596 -578 889 -146 115 -434 297 -599 378 -32 16 -58 33
-58 39 0 6 12 22 26 36 90 83 280 332 377 494 200 333 262 663 178 935 -11 35
-19 65 -18 67 2 1 165 -100 362 -226 267 -168 361 -223 363 -211 2 9 -13 193
-33 410 -19 216 -35 403 -35 414 0 15 90 96 330 295 182 151 329 275 328 277
-2 1 -185 44 -408 94 -223 51 -412 96 -421 101 -8 4 -84 182 -169 396 -84 213
-156 391 -159 395 -4 4 -105 -158 -225 -360 -121 -202 -220 -368 -221 -370 -1
-1 -182 -14 -401 -28 -220 -14 -414 -27 -431 -30 l-33 -5 225 -256 c124 -141
223 -258 222 -259 -1 -2 -52 15 -112 38 -293 108 -705 185 -1230 230 -235 20
-1282 17 -1595 -5 -378 -27 -708 -56 -1020 -92 -157 -17 -286 -31 -288 -30 -2
2 22 22 52 46 31 24 56 46 56 49 0 3 -277 68 -616 145 -338 76 -619 144 -623
150 -4 5 -111 270 -237 587 -126 318 -232 578 -235 578 -3 0 -147 -237 -320
-527z m364 -708 c93 -233 120 -292 139 -301 12 -6 152 -40 310 -75 159 -35
288 -67 288 -71 0 -4 -107 -95 -237 -203 -131 -108 -239 -205 -241 -216 -2
-10 9 -152 23 -314 15 -163 25 -299 23 -304 -2 -4 -123 68 -271 162 l-267 169
-293 -125 c-160 -69 -293 -124 -295 -122 -2 2 31 136 72 299 42 163 76 302 76
310 0 8 -94 122 -209 253 -115 131 -203 239 -197 240 6 2 150 12 321 23 215
14 311 24 317 33 4 6 78 130 164 275 86 145 158 261 160 260 1 -2 54 -134 117
-293z m6686 -28 l73 -183 194 -44 c107 -24 194 -46 193 -49 0 -3 -67 -61 -150
-129 -132 -110 -149 -127 -149 -154 0 -17 7 -105 16 -195 8 -91 13 -167 11
-170 -3 -2 -80 43 -171 100 l-166 105 -183 -78 c-100 -43 -183 -77 -185 -76
-1 2 18 85 43 184 25 100 45 188 45 196 0 8 -58 81 -130 163 l-129 148 112 8
c62 4 153 11 202 15 l90 7 100 167 c55 93 103 168 106 168 3 0 38 -82 78 -183z
m-16176 23 c182 -57 334 -215 381 -396 9 -34 16 -101 16 -149 0 -156 -48 -279
-151 -390 -221 -236 -595 -240 -822 -9 -60 61 -108 139 -138 224 -18 52 -23
86 -23 175 0 89 5 123 23 175 105 301 417 462 714 370z m13907 -649 c464 -40
789 -97 1055 -186 127 -42 333 -137 341 -158 3 -8 -18 -104 -46 -215 -27 -111
-50 -206 -50 -211 0 -5 79 25 176 66 136 59 178 73 187 64 8 -8 12 -51 12
-129 0 -96 -4 -130 -23 -187 -72 -216 -241 -467 -480 -715 l-97 -100 -105 45
c-520 224 -1318 479 -2155 690 -683 172 -1644 369 -2340 481 -116 18 -174 32
-182 42 -8 9 -13 42 -12 76 l0 61 89 73 88 72 314 45 c656 93 1289 157 1828
185 113 6 232 12 265 14 128 7 1017 -3 1135 -13z m-10130 -391 c535 -10 884
-22 1385 -46 604 -28 1450 -84 1438 -94 -5 -4 -66 -22 -138 -40 -633 -159
-1700 -462 -2426 -688 l-156 -48 -72 77 c-180 195 -433 333 -707 385 -129 24
-340 22 -471 -5 -420 -87 -755 -359 -925 -752 -48 -114 -86 -266 -94 -385 l-7
-91 -210 -77 c-1185 -436 -2414 -948 -3501 -1461 l-270 -127 -195 62 c-864
272 -1567 588 -2011 903 -137 98 -359 314 -409 399 -37 65 -76 157 -85 206 -5
32 -4 33 382 353 213 177 391 325 395 329 5 4 -28 16 -73 26 -99 21 -101 19
78 100 749 337 1840 593 3255 764 l248 29 61 -49 c75 -61 216 -132 318 -160
108 -31 297 -38 414 -16 182 35 331 114 475 254 89 86 98 92 137 92 22 0 162
7 310 15 909 49 1879 64 2854 45z m4413 -286 c47 -5 57 -9 53 -23 -21 -68
-195 -766 -192 -768 2 -2 265 109 585 246 l582 249 537 -338 c295 -187 537
-338 539 -337 1 2 -11 147 -27 323 -16 175 -30 330 -30 343 0 28 -32 32 405
-45 1028 -182 2044 -416 2840 -655 373 -112 928 -304 1107 -382 l52 -23 -170
-136 c-1062 -850 -2846 -1843 -4901 -2727 -205 -88 -215 -92 -307 -98 -94 -6
-97 -5 -594 107 l-500 114 -234 588 c-128 323 -235 588 -238 588 -3 0 -147
-237 -320 -526 -172 -290 -321 -535 -329 -544 -14 -17 -77 -22 -591 -54 -316
-20 -599 -40 -629 -44 l-53 -7 77 -87 77 -88 -45 0 c-62 0 -667 36 -1007 60
-2383 169 -4770 531 -6504 988 l-69 18 94 43 c948 438 1963 855 3208 1320 l75
28 57 -116 c130 -264 334 -464 603 -592 271 -129 590 -154 896 -69 104 29 300
127 395 197 107 80 258 241 324 347 70 113 126 244 159 375 25 98 27 122 27
306 0 191 -7 246 -40 355 -4 11 6 19 32 27 21 6 225 67 453 136 1078 326 2109
601 3140 836 146 34 281 65 300 70 19 5 51 8 70 5 19 -2 61 -6 93 -10z
m-13867 -669 c48 -121 88 -221 89 -222 1 -2 102 -25 226 -53 123 -28 230 -53
238 -56 8 -2 -52 -58 -145 -135 -88 -73 -172 -142 -188 -156 l-29 -24 17 -192
c9 -106 20 -216 23 -245 l6 -53 -208 131 -209 132 -220 -95 c-122 -52 -222
-93 -224 -92 -1 1 24 108 56 236 l58 234 -157 180 c-87 99 -156 182 -153 185
3 3 112 12 242 20 l235 15 124 208 c69 115 126 207 128 205 2 -1 43 -102 91
-223z m8772 26 c393 -113 645 -505 581 -901 -52 -322 -285 -578 -604 -661
-111 -29 -279 -29 -390 0 -160 43 -279 114 -399 241 -61 66 -87 104 -126 184
-67 139 -84 213 -83 361 1 143 23 239 83 360 115 229 330 388 588 435 79 15
268 4 350 -19z m12342 -1144 c333 -191 589 -399 710 -577 35 -51 70 -113 70
-123 0 -3 -28 1 -62 9 -124 26 -307 37 -436 25 -227 -21 -370 -61 -572 -163
-332 -166 -588 -440 -731 -783 -42 -102 -99 -305 -99 -356 0 -17 -7 -32 -17
-38 -10 -5 -117 -32 -238 -60 -683 -157 -1478 -281 -2380 -370 -373 -38 -953
-83 -999 -79 -32 3 -28 6 62 48 255 117 858 413 1132 554 1379 715 2406 1368
3129 1994 l105 90 110 -55 c61 -31 158 -83 216 -116z m700 -1121 c123 -34 278
-110 377 -185 547 -412 604 -1209 123 -1691 -487 -486 -1287 -426 -1698 128
-96 130 -161 278 -197 447 -23 109 -24 313 -1 429 89 459 449 811 915 896 25
5 123 7 216 5 146 -3 183 -7 265 -29z m-18193 -690 c2006 -555 4669 -956 7443
-1121 281 -16 847 -45 896 -45 27 0 46 -17 158 -146 70 -80 126 -148 123 -150
-3 -3 -40 4 -83 15 -132 33 -380 80 -559 106 -1153 166 -2305 49 -3490 -355
-748 -255 -1408 -596 -1960 -1010 -227 -171 -384 -308 -616 -540 -191 -190
-268 -274 -464 -507 l-20 -24 -128 30 c-71 16 -131 32 -134 35 -3 3 -126 306
-272 673 -147 368 -270 670 -275 673 -5 3 -176 -276 -382 -620 -205 -344 -379
-626 -386 -627 -7 -2 -335 -23 -728 -49 -393 -25 -717 -48 -719 -50 -3 -2 5
-14 16 -27 138 -154 374 -429 372 -432 -7 -6 -463 -35 -744 -46 -302 -12 -858
-7 -1090 11 -598 46 -1007 133 -1310 280 -307 148 -432 325 -397 562 6 45 13
83 15 85 2 2 53 -21 113 -51 206 -104 395 -157 633 -177 211 -19 465 12 671
81 108 36 340 154 434 221 305 217 541 546 645 897 50 170 65 278 65 482 0
280 -41 467 -159 735 -3 6 21 25 53 44 31 18 143 84 247 146 239 141 553 316
850 475 376 201 957 491 971 486 8 -3 103 -30 211 -60z m9916 -912 c1 -2 133
-32 292 -68 160 -36 299 -70 309 -74 16 -7 -20 -41 -220 -206 -178 -148 -240
-204 -242 -223 -2 -13 8 -155 23 -314 15 -159 25 -293 23 -298 -2 -5 -124 68
-271 161 l-268 170 -292 -125 c-160 -69 -293 -125 -294 -123 -1 1 33 141 76
310 l78 308 -210 240 c-115 131 -208 240 -206 242 2 2 126 11 274 20 149 9
291 19 317 22 l46 6 163 274 163 274 118 -296 c65 -163 119 -298 121 -300z
m-13648 306 c628 -71 1095 -592 1095 -1220 0 -672 -548 -1220 -1220 -1220
-458 0 -878 257 -1087 666 -182 356 -182 766 0 1119 229 442 725 710 1212 655z
m11120 -1300 c254 -19 575 -61 745 -99 31 -6 -17 -24 -450 -168 -1694 -563
-3433 -1045 -4965 -1379 -137 -29 -259 -56 -270 -58 -23 -5 22 37 235 221 326
282 674 511 1099 722 242 120 334 162 491 222 848 324 1599 500 2310 542 137
8 679 6 805 -3z m6198 -405 c368 -39 758 -152 1102 -320 175 -86 437 -236 420
-241 -6 -2 -86 -15 -180 -29 -428 -65 -815 -188 -1295 -411 -333 -154 -684
-364 -1049 -627 -68 -49 -129 -91 -135 -93 -6 -2 -58 47 -115 111 -303 335
-680 612 -1071 786 -52 23 -97 44 -100 46 -5 5 127 127 214 197 165 134 485
314 697 394 248 93 525 160 769 187 163 18 574 18 743 0z m-4131 -94 c247 -98
910 -423 895 -438 -3 -2 -45 3 -93 11 -498 87 -1157 79 -1769 -19 -1173 -189
-2411 -714 -3250 -1381 -143 -114 -432 -403 -523 -524 -169 -225 -211 -332
-178 -457 33 -132 117 -209 252 -234 60 -11 144 1 199 28 48 24 104 83 146
155 77 132 206 280 371 426 159 141 228 193 434 331 765 512 1706 876 2689
1040 409 69 985 83 1373 36 427 -52 852 -186 1184 -371 233 -130 467 -309 631
-484 43 -45 77 -83 75 -85 -2 -1 -52 2 -113 7 -250 21 -716 -6 -985 -57 -1237
-235 -2293 -1070 -2795 -2208 -486 -1103 -419 -2363 181 -3403 539 -933 1457
-1600 2520 -1829 255 -55 435 -75 726 -82 380 -9 687 23 1025 107 300 73 522
156 813 302 408 204 721 435 1054 779 l156 162 138 -134 c298 -290 629 -524
997 -704 1369 -668 3023 -470 4183 501 l109 91 65 -116 c223 -394 371 -779
481 -1252 l6 -25 -107 18 c-149 24 -416 33 -587 19 -383 -32 -715 -101 -1295
-271 -303 -89 -458 -125 -900 -211 -1351 -263 -2537 -399 -3914 -449 -354 -13
-1307 -13 -1666 0 -682 24 -1015 50 -2150 165 -910 93 -1166 115 -1665 147
-276 18 -1270 17 -1470 0 -444 -39 -816 -110 -1148 -218 -921 -301 -1603 -918
-1851 -1675 -85 -257 -119 -485 -119 -774 3 -944 439 -1769 1188 -2247 572
-365 1401 -617 2590 -787 1453 -208 2818 -292 4535 -278 725 6 951 12 1550 42
286 14 798 47 1008 63 l92 8 145 -221 c79 -121 141 -223 137 -227 -13 -13
-515 -176 -742 -242 -558 -161 -1220 -306 -1670 -365 -85 -12 -177 -25 -205
-31 -27 -5 -129 -18 -225 -29 -2098 -239 -4289 -38 -6670 611 -165 45 -193 50
-260 46 -173 -11 -292 -134 -292 -302 0 -120 49 -217 140 -275 99 -62 1124
-316 1838 -455 371 -72 1198 -206 1272 -206 12 0 13 -39 8 -222 -12 -425 -37
-1725 -39 -2058 l-2 -335 27 -52 c34 -64 87 -117 153 -151 100 -53 250 -29
346 56 41 36 84 112 94 164 l7 38 64 -45 c36 -25 70 -49 77 -55 282 -226 496
-451 684 -718 210 -300 428 -716 518 -993 190 -584 264 -1098 237 -1648 -14
-273 -29 -396 -73 -580 -167 -704 -567 -1236 -1204 -1602 -424 -243 -987 -425
-1585 -513 -740 -109 -1533 44 -2335 448 -762 385 -1440 897 -2264 1711 -541
535 -841 868 -1616 1795 -776 928 -977 1154 -1383 1552 l-229 224 24 29 c13
17 34 48 46 70 l22 40 3 2049 2 2049 27 56 c20 42 28 76 31 137 5 88 -6 136
-40 179 -11 14 -174 149 -362 299 -562 450 -848 700 -1190 1036 -684 673
-1133 1308 -1483 2095 -279 629 -491 1503 -533 2195 -34 572 26 1248 166 1860
126 551 293 1028 519 1485 333 674 676 1157 1180 1660 384 384 783 694 1261
978 239 143 728 396 741 384 2 -3 -12 -56 -32 -119 -52 -160 -172 -581 -246
-858 -73 -277 -77 -333 -34 -427 55 -120 148 -183 272 -183 122 0 226 54 283
146 12 18 39 102 61 186 155 594 282 1017 439 1458 104 293 209 560 219 560 4
0 122 -73 262 -161 424 -270 460 -292 463 -288 2 2 -7 117 -20 254 -13 138
-41 450 -63 695 -23 245 -43 460 -45 477 -5 32 3 39 550 494 306 254 567 465
582 470 15 6 189 45 387 89 1555 341 3419 867 5083 1432 194 66 355 118 358
116 2 -3 -13 -74 -35 -159 -22 -84 -39 -155 -36 -157 2 -3 212 85 467 195
l463 200 45 -17 c25 -10 80 -32 122 -49z m-8754 -1286 l154 -385 36 -9 c21 -5
202 -47 405 -93 202 -45 367 -86 367 -90 0 -3 -142 -124 -315 -269 -296 -246
-315 -264 -315 -295 0 -18 16 -205 35 -415 19 -210 34 -384 31 -386 -2 -2
-153 92 -337 208 -184 116 -343 216 -355 221 -17 8 -90 -20 -398 -152 -208
-89 -380 -159 -383 -157 -2 3 41 186 97 406 l102 400 -276 315 c-242 276 -273
316 -254 320 13 3 181 14 373 25 193 12 372 24 398 27 l48 6 211 354 c116 195
213 354 217 354 3 0 75 -173 159 -385z m15106 215 c87 -6 204 -20 260 -31 275
-57 567 -177 777 -317 114 -77 303 -244 387 -340 l52 -61 -52 -5 c-29 -3 -108
-8 -176 -11 -664 -31 -1385 -281 -1952 -678 -124 -87 -271 -202 -360 -282
-108 -98 -90 -94 -162 -38 -151 115 -300 191 -465 234 -99 26 -278 36 -376 20
l-73 -12 -135 82 c-74 44 -199 114 -279 154 -137 68 -413 185 -438 185 -27 0
-6 21 106 102 454 331 997 628 1412 772 376 131 734 205 1089 225 201 12 212
12 385 1z m1926 -1325 c327 -44 640 -130 915 -252 110 -49 316 -154 383 -196
l42 -27 -61 -77 c-62 -78 -214 -303 -243 -360 -9 -17 -20 -34 -25 -37 -4 -3
-46 31 -92 75 -338 325 -657 507 -992 565 -129 23 -318 14 -450 -20 -201 -52
-402 -172 -572 -341 -560 -556 -585 -1249 -72 -1969 165 -232 498 -579 780
-813 494 -410 1160 -844 1797 -1171 l165 -84 74 78 c386 413 825 973 1122
1432 111 173 109 173 109 -12 0 -498 -117 -999 -334 -1437 -303 -609 -775
-1098 -1382 -1429 -474 -258 -1035 -400 -1584 -400 -751 0 -1485 255 -2070
720 -102 81 -412 378 -431 412 -7 13 0 33 29 80 217 356 391 830 466 1268 43
245 51 351 51 645 0 294 -8 400 -50 643 -45 256 -126 542 -221 770 l-44 107
16 120 c12 88 15 164 11 285 -6 177 -20 261 -69 405 l-30 90 64 58 c322 295
671 515 1063 670 312 123 562 179 980 221 91 9 546 -4 655 -19z m-5885 -116
c387 -36 754 -138 1114 -310 l144 -69 -94 -98 c-150 -155 -279 -323 -409 -537
-23 -39 -44 -72 -46 -74 -2 -2 -58 49 -126 113 -376 362 -761 546 -1138 546
-231 0 -454 -74 -658 -217 -91 -64 -304 -279 -375 -380 -118 -167 -201 -365
-233 -561 -19 -117 -14 -316 11 -437 120 -580 594 -1175 1440 -1810 430 -322
944 -644 1448 -905 l196 -101 74 78 c585 617 1194 1466 1525 2128 34 69 31 73
56 -80 41 -248 52 -611 27 -845 -83 -758 -405 -1427 -946 -1965 -858 -853
-2126 -1168 -3299 -819 -1094 325 -1962 1224 -2235 2314 -65 258 -90 435 -98
705 -21 697 184 1378 584 1942 200 283 459 546 741 756 209 154 556 343 792
430 486 179 986 244 1505 196z m8302 -7909 c150 -13 291 -51 413 -112 94 -46
115 -62 198 -147 103 -104 163 -197 193 -292 40 -127 -5 -334 -114 -527 -148
-261 -314 -421 -561 -541 -1041 -507 -3217 -914 -5837 -1091 l-296 -20 -83 30
c-378 139 -822 181 -1163 110 -208 -42 -341 -99 -401 -171 l-29 -34 -481 -4
c-1722 -12 -3463 107 -4686 320 -195 34 -268 34 -347 -1 -101 -44 -153 -109
-174 -213 -27 -133 44 -293 154 -346 51 -25 318 -72 767 -135 1243 -177 2784
-267 4322 -254 l547 5 123 -105 c266 -228 621 -603 890 -942 186 -235 565
-766 554 -777 -9 -9 -618 -44 -1081 -63 -2014 -81 -4105 11 -5603 245 -1176
184 -1830 375 -2317 679 -160 99 -258 180 -400 328 -268 280 -423 607 -507
1072 -18 101 -22 158 -22 346 0 195 3 239 23 330 128 594 499 1036 1136 1350
401 198 796 293 1425 342 214 17 1042 17 1330 0 509 -30 877 -62 2100 -186
958 -97 1405 -125 2290 -141 369 -7 1098 7 1540 30 1141 60 2164 179 3315 386
570 103 896 176 1289 288 756 217 1117 275 1493 241z m558 -2186 c60 -40 156
-153 192 -225 50 -100 61 -130 84 -225 30 -125 23 -328 -15 -457 -63 -213
-207 -422 -416 -605 -538 -470 -1744 -892 -3423 -1197 l-249 -45 -42 35 c-23
19 -190 189 -371 377 -574 599 -844 858 -1155 1107 -80 64 -146 120 -148 126
-1 6 113 21 289 37 1907 177 3558 484 4559 850 161 59 477 190 549 228 51 27
99 25 146 -6z m-7110 -1039 c395 -90 805 -295 1230 -615 275 -206 467 -390
1304 -1248 374 -383 560 -553 819 -751 595 -451 1158 -687 1756 -736 l78 -7
-6 -30 c-3 -17 -11 -85 -17 -150 -30 -311 52 -679 235 -1053 161 -331 366
-593 685 -878 424 -378 879 -645 1376 -807 208 -67 329 -94 665 -146 l35 -6
-45 -24 c-192 -101 -566 -204 -850 -235 -134 -14 -501 -14 -650 0 -449 44
-973 197 -1405 409 -1040 512 -1920 1366 -3020 2932 -109 154 -423 626 -943
1412 -570 864 -951 1351 -1422 1817 l-155 154 110 -6 c61 -4 160 -18 220 -32z
m-14635 -6716 l0 -141 -87 68 c-49 37 -101 78 -116 91 l-29 23 69 31 c37 17
86 39 108 49 22 10 43 19 48 19 4 1 7 -62 7 -140z"/>
</g>
</svg>
